<svg width="24" height="24" viewBox="0 0 24 24" fill="none" xmlns="http://www.w3.org/2000/svg">
<g clip-path="url(#clip0_706_24)">
<path d="M4.07398 23.25H4.07373C3.97324 23.25 3.88541 23.2041 3.82941 23.1238C3.7568 23.0195 3.69531 22.8631 3.69531 22.6367V2.0373C3.69531 1.38277 4.31882 0.75 5.0752 0.75H19.0003C19.7212 0.75 20.3047 1.34824 20.3047 2.0373V22.6368C20.3047 22.9664 20.2135 23.1135 20.1634 23.169C20.1142 23.2235 20.0521 23.2501 19.9756 23.2501C19.8884 23.2501 19.734 23.2133 19.4991 23.0128L19.4985 23.0123L13.29 17.7245C13.2899 17.7245 13.2899 17.7245 13.2898 17.7244C12.9425 17.4279 12.4866 17.2859 12.0469 17.2859C11.6079 17.2859 11.1514 17.4274 10.8042 17.7236C10.804 17.7238 10.8038 17.7239 10.8036 17.7241L4.57518 23.0123L4.57347 23.0138C4.35255 23.2025 4.17431 23.25 4.07398 23.25Z" stroke="#BDBDBD" stroke-width="1.5"/>
</g>
<defs>
<clipPath id="clip0_706_24">
<rect width="24" height="24" fill="white"/>
</clipPath>
</defs>
</svg>
