<svg width="44" height="44" viewBox="0 0 44 44" fill="none" xmlns="http://www.w3.org/2000/svg">
<rect width="44" height="44" rx="12" fill="#F0F0F0"/>
<g clip-path="url(#clip0_643_2128)">
<path d="M21.0991 24.6048C18.4373 24.6048 16.2719 26.7703 16.2719 29.4321C16.2719 29.7458 16.5261 30 16.8398 30H25.3587C25.6724 30 25.9266 29.7458 25.9265 29.4321C25.9265 26.7703 23.761 24.6048 21.0991 24.6048ZM17.4514 28.8642C17.7253 27.0974 19.2568 25.7406 21.0993 25.7406C22.9419 25.7406 24.4733 27.0974 24.7473 28.8642H17.4514Z" fill="#909090"/>
<path d="M29.4893 14.2645C28.7046 13.4797 27.6578 13.0475 26.5416 13.0475C25.4257 13.0475 24.379 13.4797 23.5942 14.2645C21.9688 15.8899 21.9688 18.5347 23.5942 20.1601C23.7005 20.2667 23.845 20.3265 23.9957 20.3265C24.1464 20.3265 24.2906 20.2667 24.3972 20.1599L29.4893 15.0676C29.7112 14.8459 29.7112 14.4862 29.4893 14.2645ZM24.0334 18.9176C23.2307 17.7379 23.3519 16.1131 24.3972 15.0677C24.9676 14.4976 25.729 14.1835 26.5417 14.1835C27.1605 14.1835 27.7495 14.3654 28.2471 14.7039L24.0334 18.9176Z" fill="#909090"/>
<path d="M22.9364 13.1295C22.7149 12.9474 22.3933 12.9585 22.1855 13.1556L15.5219 19.4595C15.4114 19.5642 15.3474 19.7088 15.3444 19.8612C15.3413 20.0134 15.3996 20.1605 15.5062 20.2693L20.6932 25.5699L21.5051 24.7754L16.7221 19.8877L22.6021 14.3251L23.5969 15.1428L24.3183 14.2653L22.9364 13.1295Z" fill="#909090"/>
</g>
<defs>
<clipPath id="clip0_643_2128">
<rect width="17" height="17" fill="white" transform="translate(14 13)"/>
</clipPath>
</defs>
</svg>
