<svg width="20" height="20" viewBox="0 0 20 20" fill="none" xmlns="http://www.w3.org/2000/svg">
<g clip-path="url(#clip0_311_744)">
<path d="M19.9824 7.72479C19.9402 7.59519 19.8281 7.50068 19.6932 7.48099L13.2171 6.53983L10.3209 0.671608C10.2608 0.549174 10.1362 0.471848 10.0002 0.471848C9.86412 0.471848 9.73918 0.549174 9.6794 0.671608L6.78288 6.54019L0.306783 7.48135C0.171819 7.50104 0.0601256 7.59519 0.0175245 7.72515C-0.0243607 7.85438 0.0103646 7.99686 0.108097 8.09173L4.79458 12.6597L3.68803 19.11C3.66512 19.2443 3.72025 19.38 3.83015 19.4602C3.94077 19.5411 4.08719 19.5514 4.20712 19.4874L10.0002 16.4423L15.7925 19.4874C15.8448 19.5149 15.9024 19.5285 15.9593 19.5285C16.0334 19.5285 16.1072 19.5056 16.1698 19.4602C16.2801 19.38 16.3352 19.2443 16.3119 19.11L15.2057 12.6601L19.8922 8.09173C19.9896 7.99615 20.0247 7.85402 19.9824 7.72479Z" fill="#F2C94C"/>
</g>
<defs>
<clipPath id="clip0_311_744">
<rect width="20" height="20" fill="white"/>
</clipPath>
</defs>
</svg>
